<svg xmlns="http://www.w3.org/2000/svg" viewBox="0 0 92 91.5"><defs><style>.cls-1,.cls-2{fill:none;stroke-miterlimit:10;}.cls-1{stroke:#25ade4;}.cls-2{stroke:#231f20;}</style></defs><g id="Layer_2" data-name="Layer 2"><g id="Layer_1-2" data-name="Layer 1"><path class="cls-1" d="M39.57,20h0a14,14,0,0,1,13.11,0h0c1.68.9,2.8,3.47,2.8,6.15h0c0,2.71-1.14,4.94-2.84,5.81l-1.47.75a10.86,10.86,0,0,1-10.11.05L39.64,32c-1.72-.86-2.87-3.09-2.87-5.82V26.1C36.77,23.42,37.89,20.84,39.57,20Z"/><path class="cls-1" d="M34.11,59.34V72.09c-3.57-1.31-6-4.26-6-7.63V48.68c0-4.06,3.53-7.53,8.36-8.2L39.81,40a46.27,46.27,0,0,1,12.55,0l3.33.47c4.82.67,8.36,4.14,8.36,8.2V64.46c0,3.42-2.5,6.42-6.16,7.68V59.34"/><line class="cls-1" x1="57.89" y1="47.93" x2="57.89" y2="89.15"/><line class="cls-1" x1="34.11" y1="89.15" x2="34.11" y2="47.93"/><path class="cls-2" d="M12,22.44h0a13.92,13.92,0,0,1,13.12,0h0c1.68.9,2.8,3.47,2.8,6.15h0c0,2.71-1.15,4.93-2.85,5.8l-1.46.76a10.86,10.86,0,0,1-10.11,0L12,34.48c-1.71-.86-2.87-3.1-2.87-5.82v-.07C9.15,25.91,10.27,23.34,12,22.44Z"/><path class="cls-2" d="M21.6,2.14h0a13.92,13.92,0,0,1,13.12,0h0c1.67.9,2.8,3.47,2.8,6.15h0c0,2.71-1.15,4.93-2.85,5.8l-1.46.75a10.83,10.83,0,0,1-10.11.05l-1.43-.71c-1.71-.86-2.87-3.1-2.87-5.82V8.29C18.8,5.61,19.92,3,21.6,2.14Z"/><path class="cls-2" d="M6.49,61.41V74.16c-3.57-1.3-6-4.26-6-7.62V50.76c0-4.07,3.54-7.54,8.36-8.21l3.33-.46a45.48,45.48,0,0,1,12.55,0l3.33.46"/><line class="cls-2" x1="6.49" y1="91.22" x2="6.49" y2="50"/><path class="cls-2" d="M80.05,22.77h0a14,14,0,0,0-13.12,0h0c-1.68.9-2.8,3.47-2.8,6.15h0c0,2.71,1.15,4.93,2.85,5.81l1.46.75a10.86,10.86,0,0,0,10.11.05L80,34.81c1.71-.86,2.87-3.09,2.87-5.82v-.07C82.85,26.24,81.73,23.67,80.05,22.77Z"/><path class="cls-2" d="M70.73,2.14h0a13.9,13.9,0,0,0-13.11,0h0c-1.68.9-2.8,3.47-2.8,6.15h0c0,2.71,1.14,4.93,2.84,5.8l1.47.75a10.83,10.83,0,0,0,10.11.05l1.42-.71c1.72-.86,2.87-3.1,2.87-5.82V8.29C73.53,5.61,72.41,3,70.73,2.14Z"/><path class="cls-2" d="M85.51,61.69V74.44c3.57-1.3,6-4.26,6-7.62V51c0-4.07-3.54-7.54-8.36-8.21l-3.33-.46a45.48,45.48,0,0,0-12.55,0l-3.33.46"/><line class="cls-2" x1="85.51" y1="91.5" x2="85.51" y2="50.28"/></g></g></svg>