<svg xmlns="http://www.w3.org/2000/svg" viewBox="0 0 90.01 96.5"><defs><style>.cls-1,.cls-2{fill:none;stroke-miterlimit:10;}.cls-1{stroke:#25ade4;}.cls-2{stroke:#231f20;}</style></defs><g id="Layer_2" data-name="Layer 2"><g id="Layer_1-2" data-name="Layer 1"><path class="cls-1" d="M31.6,68.78a23.11,23.11,0,0,1-2.12-1.56A25.91,25.91,0,0,1,20,46.92c.1-14,11.31-25.45,25-25.56,14.12-.13,25.59,11.57,25.47,26A25.92,25.92,0,0,1,58.6,69"/><line class="cls-2" y1="46.99" x2="14.9" y2="47.14"/><line class="cls-2" x1="6.36" y1="70.93" x2="18.91" y2="62.85"/><line class="cls-2" x1="83.71" y1="70.98" x2="70.8" y2="62.82"/><line class="cls-2" x1="74.87" y1="45.68" x2="90" y2="45.95"/><line class="cls-2" x1="5.84" y1="24.15" x2="18.9" y2="31.45"/><line class="cls-2" x1="21.92" y1="6.65" x2="30.01" y2="19.79"/><line class="cls-2" x1="44.76" x2="44.74" y2="15.83"/><line class="cls-2" x1="67.58" y1="6.4" x2="60.19" y2="20.28"/><line class="cls-2" x1="84.02" y1="23.57" x2="70.99" y2="31.8"/><path class="cls-1" d="M25.06,47.08a22.22,22.22,0,0,1,.15-2.32,20.66,20.66,0,0,1,2.7-8,20.36,20.36,0,0,1,4.42-5.26"/><path class="cls-1" d="M51.23,84.22v-.83c0-4.25,1.34-8.58,3.51-10.8l4-3.63"/><path class="cls-1" d="M40.19,93.07A5.31,5.31,0,0,0,44.55,96h1.28c1.76,0,3.34-1.17,4.42-3"/><path class="cls-1" d="M31.53,68.74l4.33,4C38,75,39.15,79,39.15,83.24v1"/><line class="cls-1" x1="38.31" y1="86.14" x2="51.9" y2="86.14"/><line class="cls-1" x1="38.31" y1="90.01" x2="51.9" y2="90.01"/><line class="cls-2" x1="45.22" y1="80.42" x2="45.22" y2="58.71"/><line class="cls-2" x1="45.27" y1="59.09" x2="54.42" y2="46.4"/><line class="cls-2" x1="36.12" y1="46.4" x2="45.27" y2="59.09"/></g></g></svg>