<svg xmlns="http://www.w3.org/2000/svg" viewBox="0 0 93 64"><defs><style>.cls-1,.cls-2{fill:none;stroke-miterlimit:10;}.cls-1{stroke:#25ade4;}.cls-2{stroke:#231f20;}</style></defs><g id="Layer_2" data-name="Layer 2"><g id="Layer_1-2" data-name="Layer 1"><polyline class="cls-1" points="38.09 26.17 38.09 8.36 0.5 8.36 0.5 55.53 38.09 55.53 38.09 40.33"/><path class="cls-1" d="M.5,59c0,2.4,2.54,4.35,5.66,4.35H32.43c3.12,0,5.66-2,5.66-4.35V55.53H.5Z"/><path class="cls-1" d="M32.43.5H6.16C3,.5.5,2.45.5,4.85V8.36H38.09V4.85C38.09,2.45,35.55.5,32.43.5Z"/><path class="cls-2" d="M47.79,40.33V53.72A2,2,0,0,0,50,55.53h6.7"/><path class="cls-2" d="M47.79,26.17v-16A2,2,0,0,1,50,8.36h6.7"/><path class="cls-2" d="M56.68,8.36H80.63a2,2,0,0,1,2.18,1.81V53.72a2,2,0,0,1-2.18,1.81H56.68"/><path class="cls-2" d="M74.19,2.42V8.36H56.68V2.42A2,2,0,0,1,58.87.61H72A2,2,0,0,1,74.19,2.42Z"/><path class="cls-2" d="M74.19,55.53V61.7A2,2,0,0,1,72,63.5H58.87a2,2,0,0,1-2.19-1.8V55.53Z"/><polyline class="cls-2" points="24.65 40.15 16.13 32.26 24.65 26.17"/><polyline class="cls-2" points="61.64 40.15 70.16 32.26 61.64 26.17"/><line class="cls-2" x1="16.13" y1="32.26" x2="70.15" y2="32.26"/><path class="cls-2" d="M87.12,25.54h2.49a2.9,2.9,0,0,1,2.89,2.89v7.66A2.89,2.89,0,0,1,89.61,39H87.25"/></g></g></svg>