<svg xmlns="http://www.w3.org/2000/svg" viewBox="0 0 93 86"><defs><style>.cls-1,.cls-2,.cls-3{fill:none;}.cls-1{stroke:#231f20;}.cls-1,.cls-2{stroke-miterlimit:10;}.cls-2,.cls-3{stroke:#25ade4;}.cls-3{stroke-linecap:round;stroke-linejoin:round;}</style></defs><g id="Layer_2" data-name="Layer 2"><g id="Layer_1-2" data-name="Layer 1"><line class="cls-1" x1="7.41" y1="74.23" x2="7.41" y2="67.17"/><path class="cls-1" d="M27.11,15.61H80.43c2.37,0,4.29,2.19,4.29,4.88v54"/><polyline class="cls-2" points="27.32 27.82 27.32 8.86 0.5 8.86 0.5 59.05 27.32 59.05 27.32 42.88"/><path class="cls-2" d="M.5,62.79a4.36,4.36,0,0,0,4,4.62H23.27a4.35,4.35,0,0,0,4-4.62V59.05H.5Z"/><path class="cls-2" d="M23.27.5H4.54a4.36,4.36,0,0,0-4,4.63V8.86H27.31V5.13A4.36,4.36,0,0,0,23.27.5Z"/><line class="cls-3" x1="10.39" y1="64.02" x2="17.7" y2="64.02"/><polyline class="cls-2" points="15.37 42.95 9.93 34.56 15.37 28.08"/><polyline class="cls-2" points="39.05 42.95 44.49 34.56 39.05 28.08"/><line class="cls-2" x1="9.93" y1="34.56" x2="44.49" y2="34.56"/><path class="cls-1" d="M92.5,74.89V77c0,4.7-3.32,8.5-7.42,8.5H8.58c-4.1,0-7.42-3.8-7.42-8.5V74.89h37a7.79,7.79,0,0,0,6.32,3.45h4.8a7.79,7.79,0,0,0,6.32-3.45Z"/></g></g></svg>