<svg xmlns="http://www.w3.org/2000/svg" viewBox="0 0 93 69"><defs><style>.cls-1,.cls-2,.cls-3{fill:none;}.cls-1,.cls-3{stroke:#25ade4;stroke-linecap:round;}.cls-1,.cls-2{stroke-miterlimit:10;}.cls-2{stroke:#231f20;}.cls-3{stroke-linejoin:round;}</style></defs><g id="Layer_2" data-name="Layer 2"><g id="Layer_1-2" data-name="Layer 1"><line class="cls-1" x1="38.33" y1="14.59" x2="69.06" y2="14.59"/><line class="cls-1" x1="38.33" y1="29.8" x2="69.06" y2="29.8"/><line class="cls-1" x1="38.33" y1="45.01" x2="69.06" y2="45.01"/><path class="cls-2" d="M7.43,58.23v-53C7.43,2.62,9.07.5,11.1.5h71c2,0,3.68,2.12,3.68,4.73v53"/><polyline class="cls-3" points="24.85 14.59 28.67 18.2 33.74 10.98"/><polyline class="cls-3" points="24.85 29.8 28.67 33.41 33.74 26.19"/><polyline class="cls-3" points="24.85 45.01 28.67 48.62 33.74 41.4"/><path class="cls-2" d="M92.5,58.23v2.05c0,4.54-3.35,8.22-7.48,8.22H8C3.85,68.5.5,64.82.5,60.28V58.23H37.72a7.9,7.9,0,0,0,6.36,3.34h4.84a7.9,7.9,0,0,0,6.36-3.34Z"/></g></g></svg>