<svg xmlns="http://www.w3.org/2000/svg" viewBox="0 0 82 88.73"><defs><style>.cls-1,.cls-2,.cls-3{fill:none;stroke-miterlimit:10;}.cls-1{stroke:#25ade4;}.cls-2,.cls-3{stroke:#231f20;}.cls-3{stroke-linecap:round;}.cls-4{fill:#25ade4;}</style></defs><g id="Layer_2" data-name="Layer 2"><g id="Layer_1-2" data-name="Layer 1"><rect class="cls-1" x="10.87" y="13.15" width="60.39" height="60.03" rx="2"/><path class="cls-2" d="M40.94,2.84H9.53a9,9,0,0,0-9,9V43.16h0"/><line class="cls-2" x1="0.5" y1="49.74" x2="0.5" y2="45.38"/><line class="cls-2" x1="0.5" y1="56.02" x2="0.5" y2="51.66"/><line class="cls-2" x1="0.5" y1="63.18" x2="0.5" y2="58.82"/><polyline class="cls-2" points="38.48 0.36 40.95 2.67 38.48 5.46"/><path class="cls-2" d="M41.06,85.89H72.47a9,9,0,0,0,9-9V45.57h0"/><line class="cls-2" x1="81.5" y1="38.99" x2="81.5" y2="43.36"/><line class="cls-2" x1="81.5" y1="32.71" x2="81.5" y2="37.07"/><line class="cls-2" x1="81.5" y1="26.55" x2="81.5" y2="30.91"/><polyline class="cls-2" points="43.52 88.36 41.05 86.06 43.52 83.27"/><line class="cls-1" x1="10.87" y1="25.11" x2="71.27" y2="25.11"/><line class="cls-3" x1="47.02" y1="33.21" x2="66.12" y2="33.21"/><line class="cls-3" x1="47.02" y1="43.16" x2="68.05" y2="43.16"/><line class="cls-3" x1="47.02" y1="53.12" x2="59.68" y2="53.12"/><rect class="cls-2" x="17.44" y="31.57" width="25.68" height="29.43" rx="2"/><ellipse class="cls-4" cx="17.22" cy="18.88" rx="2.08" ry="2.07"/><ellipse class="cls-4" cx="24.47" cy="18.88" rx="2.08" ry="2.07"/><ellipse class="cls-4" cx="31.32" cy="18.88" rx="2.08" ry="2.07"/></g></g></svg>