<svg width="183" height="191" xmlns="http://www.w3.org/2000/svg">
    <g fill="none" fill-rule="evenodd">
    <path fill="#E5E5E5" d="M28 183L150 183 150 61 28 61z"></path><path fill="#FFF" d="M30 185L152 185 152 63 30 63z"></path><path d="M152.469695,185.03018 C148.399614,185.03018 144.329809,185.03018 140.259727,185.03018 C130.532979,185.03018 120.806231,185.03018 111.079759,185.03018 C99.2690624,185.03018 87.4586424,185.03018 75.6482224,185.03018 C65.473848,185.03018 55.2991973,185.03018 45.1248229,185.03018 C41.7551934,185.03018 38.3858403,185.03018 35.0162108,185.03018 C33.9667764,185.03018 32.9170657,185.03018 31.8676313,185.03018 C31.4368603,185.03018 30.6222914,184.86809 30.2174937,185.03018 C30.165547,185.05082 30.0669035,185.03018 30.008049,185.03018 C30.153113,185.161173 30.2979006,185.292441 30.4426883,185.423435 C30.4426883,181.369803 30.4426883,177.316171 30.4426883,173.26254 C30.4426883,163.575379 30.4426883,153.887942 30.4426883,144.200781 C30.4426883,132.437819 30.4426883,120.675132 30.4426883,108.912446 C30.4426883,98.7789172 30.4426883,88.6456639 30.4426883,78.5124105 C30.4426883,75.1563999 30.4426883,71.8003892 30.4426883,68.4446537 C30.4426883,67.3991856 30.4426883,66.3539926 30.4426883,65.3085244 C30.4426883,64.8431686 30.5852655,64.1130746 30.4426883,63.6653313 C30.4244517,63.6080906 30.4426883,63.518652 30.4426883,63.456733 C30.1384684,63.6279047 29.8342485,63.7988012 29.5300285,63.9699729 C33.6001099,63.9699729 37.6701912,63.9699729 41.7402726,63.9699729 C51.4670209,63.9699729 61.1934929,63.9699729 70.9202413,63.9699729 C82.7306613,63.9699729 94.5413576,63.9699729 106.351778,63.9699729 C116.526152,63.9699729 126.700526,63.9699729 136.875177,63.9699729 C140.24453,63.9699729 143.61416,63.9699729 146.983789,63.9699729 C148.033224,63.9699729 149.082934,63.9699729 150.132369,63.9699729 C150.562863,63.9699729 151.377709,64.1317879 151.782506,63.9699729 C151.834453,63.949058 151.93282,63.9699729 151.991675,63.9699729 C151.846887,63.8387045 151.702099,63.7077114 151.557312,63.5764431 C151.557312,67.6300747 151.557312,71.6837063 151.557312,75.7373378 C151.557312,85.4247743 151.557312,95.1119355 151.557312,104.799372 C151.557312,116.562059 151.557312,128.324745 151.557312,140.087707 C151.557312,150.22096 151.557312,160.354214 151.557312,170.487742 C151.557312,173.843478 151.557312,177.199488 151.557312,180.555499 C151.557312,182.093017 151.342064,183.807761 151.557312,185.334822 C151.566706,185.401419 151.557312,185.475447 151.557312,185.543145 C151.557312,186.200037 152.904335,185.974651 152.904335,185.423435 C152.904335,181.369803 152.904335,177.316171 152.904335,173.26254 C152.904335,163.575379 152.904335,153.887942 152.904335,144.200781 C152.904335,132.437819 152.904335,120.675132 152.904335,108.912446 C152.904335,98.7789172 152.904335,88.6456639 152.904335,78.5124105 C152.904335,75.1563999 152.904335,71.8003892 152.904335,68.4446537 C152.904335,66.9068606 153.119582,65.1923918 152.904335,63.6653313 C152.89494,63.5984588 152.904335,63.5244311 152.904335,63.456733 C152.904335,63.2241927 152.703455,63.0634785 152.469695,63.0634785 C148.399614,63.0634785 144.329809,63.0634785 140.259727,63.0634785 C130.532979,63.0634785 120.806231,63.0634785 111.079759,63.0634785 C99.2690624,63.0634785 87.4586424,63.0634785 75.6482224,63.0634785 C65.473848,63.0634785 55.2991973,63.0634785 45.1248229,63.0634785 C40.1633578,63.0634785 35.1775773,62.9206519 30.2174937,63.0634785 C30.147863,63.0654048 30.077956,63.0634785 30.008049,63.0634785 C29.740026,63.0634785 29.0956655,63.1818126 29.0956655,63.5764431 C29.0956655,67.6300747 29.0956655,71.6837063 29.0956655,75.7373378 C29.0956655,85.4247743 29.0956655,95.1119355 29.0956655,104.799372 C29.0956655,116.562059 29.0956655,128.324745 29.0956655,140.087707 C29.0956655,150.22096 29.0956655,160.354214 29.0956655,170.487742 C29.0956655,173.843478 29.0956655,177.199488 29.0956655,180.555499 C29.0956655,182.093017 28.8804181,183.807761 29.0956655,185.334822 C29.1050601,185.401419 29.0956655,185.475447 29.0956655,185.543145 C29.0956655,185.77596 29.2962683,185.936399 29.5300285,185.936399 C33.6001099,185.936399 37.6701912,185.936399 41.7402726,185.936399 C51.4670209,185.936399 61.1934929,185.936399 70.9202413,185.936399 C82.7306613,185.936399 94.5413576,185.936399 106.351778,185.936399 C116.526152,185.936399 126.700526,185.936399 136.875177,185.936399 C141.836642,185.936399 146.822423,186.079501 151.782506,185.936399 C151.852137,185.934473 151.922044,185.936399 151.991675,185.936399 C152.592654,185.936399 153.368539,185.03018 152.469695,185.03018" fill="#6A79A8"></path><path fill="#F9F9F9" d="M30 187L152 187 152 78 30 78z"></path><path fill="#FFF" d="M30 187L147 187 147 78 30 78z"></path><path d="M152.466376,185.137625 C148.39767,185.137625 144.328965,185.137625 140.26026,185.137625 C130.5368,185.137625 120.813617,185.137625 111.090157,185.137625 C99.2837298,185.137625 87.4773029,185.137625 75.6705997,185.137625 C65.4996652,185.137625 55.3287308,185.137625 45.15752,185.137625 C41.7893061,185.137625 38.4208159,185.137625 35.0523257,185.137625 C34.0032461,185.137625 32.9541665,185.137625 31.9048106,185.137625 C31.4722518,185.137625 30.6623778,184.976521 30.255231,185.137625 C30.2030256,185.158279 30.1052441,185.137625 30.0461333,185.137625 C30.1834141,185.240897 30.3206949,185.344169 30.4579757,185.447166 C30.4579757,181.39064 30.4579757,177.334389 30.4579757,173.277864 C30.4579757,163.583511 30.4579757,153.889158 30.4579757,144.19508 C30.4579757,132.423719 30.4579757,120.652635 30.4579757,108.88155 C30.4579757,98.7410613 30.4579757,88.6002976 30.4579757,78.4598093 C30.4579757,75.1014025 30.4579757,71.7432711 30.4579757,68.3848643 C30.4579757,67.3389251 30.4579757,66.2927105 30.4579757,65.2467712 C30.4579757,64.7830109 30.6018858,64.0474386 30.4579757,63.6021295 C30.4394691,63.5451234 30.4579757,63.4553456 30.4579757,63.3933823 C30.1497154,63.549805 29.8417312,63.7062278 29.5337471,63.8623751 C33.6024524,63.8623751 37.6711576,63.8623751 41.7398629,63.8623751 C51.4630464,63.8623751 61.1865062,63.8623751 70.9096898,63.8623751 C82.7163929,63.8623751 94.5228199,63.8623751 106.329247,63.8623751 C116.500458,63.8623751 126.671392,63.8623751 136.842326,63.8623751 C140.210817,63.8623751 143.579307,63.8623751 146.947521,63.8623751 C147.996877,63.8623751 149.045956,63.8623751 150.095312,63.8623751 C150.527595,63.8623751 151.337469,64.0237549 151.744616,63.8623751 C151.796821,63.8417207 151.894879,63.8623751 151.953989,63.8623751 C151.816709,63.7593784 151.679428,63.6561064 151.542147,63.5528344 C151.542147,67.6093601 151.542147,71.6658859 151.542147,75.7224117 C151.542147,85.4164894 151.542147,95.1108425 151.542147,104.805196 C151.542147,116.576281 151.542147,128.347365 151.542147,140.11845 C151.542147,150.259214 151.542147,160.399702 151.542147,170.540191 C151.542147,173.898597 151.542147,177.257004 151.542147,180.615136 C151.542147,181.66135 151.542147,182.70729 151.542147,183.753504 C151.542147,184.26298 151.439117,184.896657 151.542147,185.398146 C151.555406,185.461761 151.542147,185.540524 151.542147,185.606618 C151.542147,186.175027 152.878218,185.901563 152.878218,185.447166 C152.878218,181.39064 152.878218,177.334389 152.878218,173.277864 C152.878218,163.583511 152.878218,153.889158 152.878218,144.19508 C152.878218,132.423719 152.878218,120.652635 152.878218,108.88155 C152.878218,98.7410613 152.878218,88.6002976 152.878218,78.4598093 C152.878218,75.1014025 152.878218,71.7432711 152.878218,68.3848643 C152.878218,66.8834265 153.152227,65.0856668 152.878218,63.6021295 C152.866064,63.537137 152.878218,63.4603026 152.878218,63.3933823 C152.878218,63.1686624 152.67354,63.0838416 152.466376,63.0838416 C148.39767,63.0838416 144.328965,63.0838416 140.26026,63.0838416 C130.5368,63.0838416 120.813617,63.0838416 111.090157,63.0838416 C99.2837298,63.0838416 87.4773029,63.0838416 75.6705997,63.0838416 C65.4996652,63.0838416 55.3287308,63.0838416 45.15752,63.0838416 C40.2032568,63.0838416 35.2070083,62.895198 30.255231,63.0838416 C30.1859001,63.0865955 30.1157404,63.0838416 30.0461333,63.0838416 C29.8281965,63.0838416 29.1219046,63.209145 29.1219046,63.5528344 C29.1219046,67.6093601 29.1219046,71.6658859 29.1219046,75.7224117 C29.1219046,85.4164894 29.1219046,95.1108425 29.1219046,104.805196 C29.1219046,116.576281 29.1219046,128.347365 29.1219046,140.11845 C29.1219046,150.259214 29.1219046,160.399702 29.1219046,170.540191 C29.1219046,173.898597 29.1219046,177.257004 29.1219046,180.615136 C29.1219046,182.116573 28.8476192,183.914333 29.1219046,185.398146 C29.1340583,185.462863 29.1219046,185.539973 29.1219046,185.606618 C29.1219046,185.831613 29.3265829,185.916158 29.5337471,185.916158 C33.6024524,185.916158 37.6711576,185.916158 41.7398629,185.916158 C51.4630464,185.916158 61.1865062,185.916158 70.9096898,185.916158 C82.7163929,185.916158 94.5228199,185.916158 106.329247,185.916158 C116.500458,185.916158 126.671392,185.916158 136.842326,185.916158 C141.79659,185.916158 146.793114,186.104802 151.744616,185.916158 C151.814223,185.91368 151.884382,185.916158 151.953989,185.916158 C152.471348,185.916158 153.364363,185.137625 152.466376,185.137625" fill="#6A79A8"></path><path d="M48.1118381 120.346051L46.8595928 120.346051 46.8595928 123.050494 48.1118381 123.050494C48.5499248 123.050494 48.9163246 123.006064 49.2104686 122.917754 49.504897 122.829169 49.7293453 122.684361 49.8838135 122.483057 50.0379973 122.282027 50.1153737 122.018192 50.1153737 121.692101 50.1153737 121.302109 49.9964644 120.983971 49.7583614 120.738512 49.4912423 120.477145 48.942496 120.346051 48.1118381 120.346051zM48.5627261 124.402578L46.8595928 124.402578 46.8595928 126.907637C46.8595928 127.26609 46.7719755 127.537604 46.5964563 127.722727 46.4212216 127.907576 46.1999025 128 45.9327834 128 45.6531475 128 45.4278457 127.908673 45.2565937 127.725469 45.0853416 127.54254 45 127.274043 45 126.919704L45 120.098671C45 119.704291 45.0938757 119.422629 45.2816272 119.253687 45.4696631 119.084745 45.7677897 119 46.1771447 119L48.5627261 119C49.2679319 119 49.8107043 119.052383 50.1904743 119.156875 50.5662616 119.257527 50.8905596 119.424823 51.1642216 119.657941 51.4375991 119.891608 51.6452635 120.177109 51.787215 120.514993 51.928882 120.853425 52 121.233545 52 121.656174 52 122.557655 51.71183 123.240553 51.1357744 123.705418 50.5600033 124.170283 49.702036 124.402578 48.5627261 124.402578zM99.6885845 121.552778L100.015068 121.552778 100.015068 121.065905C100.015068 120.559342 100.069406 120.156627 100.178539 119.858029 100.287215 119.558892 100.471461 119.341485 100.73105 119.204729 100.990868 119.068243 101.346804 119 101.799087 119 102.599543 119 103 119.231703 103 119.694569 103 119.845082 102.957991 119.973746 102.874201 120.080561 102.790411 120.187646 102.691553 120.240784 102.577854 120.240784 102.524201 120.240784 102.432192 120.228916 102.30137 120.205179 102.170776 120.181442 102.060274 120.169574 101.969863 120.169574 101.721918 120.169574 101.562785 120.255619 101.492466 120.427711 101.422146 120.600072 101.386986 120.846341 101.386986 121.166787L101.386986 121.552778 101.723744 121.552778C102.246119 121.552778 102.507534 121.738896 102.507534 122.110861 102.507534 122.376281 102.4379 122.544327 102.299087 122.615537 102.159817 122.686747 101.968037 122.722352 101.723744 122.722352L101.386986 122.722352 101.386986 127.014656C101.386986 127.335371 101.322374 127.579752 101.193379 127.748067 101.064384 127.916112 100.897717 128 100.693379 128 100.499087 128 100.337443 127.916112 100.208447 127.748067 100.079452 127.579752 100.015068 127.335371 100.015068 127.014656L100.015068 122.722352 99.6381279 122.722352C99.43379 122.722352 99.276484 122.668135 99.1657534 122.559162 99.0552511 122.450189 99 122.308847 99 122.134598 99 121.746988 99.2294521 121.552778 99.6885845 121.552778" fill="#FFF"></path><path fill="#EBE7FF" d="M30 76L152 76 152 63 30 63z"></path><path d="M147,78 L30,78 L30,67 L139.959308,67 C143.847757,67 147,70.2246599 147,74.2024382 L147,78" fill="#E5E1F6"></path><path d="M151.392023,76.0390306 C147.337562,76.0390306 143.283101,76.0390306 139.228364,76.0390306 C129.58657,76.0390306 119.944776,76.0390306 110.302982,76.0390306 C98.5528018,76.0390306 86.8026217,76.0390306 75.0527168,76.0390306 C64.9352704,76.0390306 54.8175489,76.0390306 44.7001024,76.0390306 C41.375213,76.0390306 38.0500485,76.0390306 34.7251591,76.0390306 C33.6794943,76.0390306 32.6338296,76.0390306 31.5881648,76.0390306 C31.1185647,76.0390306 30.3969707,75.9047501 29.9441519,76.0390306 C29.8861053,76.0563142 29.7980725,76.0390306 29.7356242,76.0390306 C29.9380997,76.1722474 30.1408503,76.3051984 30.3436008,76.4381493 C30.3436008,72.1103303 30.3436008,67.7822454 30.3436008,63.4544263 C30.0984845,63.623274 29.853093,63.7921217 29.6079766,63.9609694 C33.6627131,63.9609694 37.7171745,63.9609694 41.7716358,63.9609694 C51.413705,63.9609694 61.0554991,63.9609694 70.6972933,63.9609694 C82.4474733,63.9609694 94.1973783,63.9609694 105.947558,63.9609694 C116.065005,63.9609694 126.182451,63.9609694 136.299898,63.9609694 C139.625062,63.9609694 142.950227,63.9609694 146.275116,63.9609694 C147.320781,63.9609694 148.366446,63.9609694 149.41211,63.9609694 C149.88171,63.9609694 150.603029,64.0952499 151.056123,63.9609694 C151.113895,63.9436858 151.202203,63.9609694 151.264651,63.9609694 C151.0619,63.8277526 150.859425,63.6948016 150.656674,63.5618507 C150.656674,67.8896697 150.656674,72.2177546 150.656674,76.5455737 C150.656674,77.1972992 152,76.9914911 152,76.4381493 C152,72.1103303 152,67.7822454 152,63.4544263 C152,63.1252398 151.675654,63.0553076 151.392023,63.0553076 C147.337562,63.0553076 143.283101,63.0553076 139.228364,63.0553076 C129.58657,63.0553076 119.944776,63.0553076 110.302982,63.0553076 C98.5528018,63.0553076 86.8026217,63.0553076 75.0527168,63.0553076 C64.9352704,63.0553076 54.8175489,63.0553076 44.7001024,63.0553076 C41.375213,63.0553076 38.0500485,63.0553076 34.7251591,63.0553076 C33.1507473,63.0553076 31.5147124,62.9308655 29.9441519,63.0553076 C29.8756514,63.0608915 29.8043999,63.0553076 29.7356242,63.0553076 C29.4861062,63.0553076 29,63.2677632 29,63.5618507 C29,67.8896697 29,72.2177546 29,76.5455737 C29,76.8750261 29.324621,76.9446924 29.6079766,76.9446924 C33.6627131,76.9446924 37.7171745,76.9446924 41.7716358,76.9446924 C51.413705,76.9446924 61.0554991,76.9446924 70.6972933,76.9446924 C82.4474733,76.9446924 94.1973783,76.9446924 105.947558,76.9446924 C116.065005,76.9446924 126.182451,76.9446924 136.299898,76.9446924 C139.625062,76.9446924 142.950227,76.9446924 146.275116,76.9446924 C147.849528,76.9446924 149.485563,77.0691345 151.056123,76.9446924 C151.124624,76.9391085 151.1956,76.9446924 151.264651,76.9446924 C152.009904,76.9446924 152.29601,76.0390306 151.392023,76.0390306" fill="#6A79A8"></path><path d="M41 70.0001159C41 68.8955328 40.1045258 68 39.0001153 68 37.8954742 68 37 68.8955328 37 70.0001159 37 71.1044672 37.8954742 72 39.0001153 72 40.1045258 72 41 71.1044672 41 70.0001159M48 70.0001159C48 68.8955328 47.1044742 68 46 68 44.8952952 68 44 68.8955328 44 70.0001159 44 71.1044672 44.8952952 72 46 72 47.1044742 72 48 71.1044672 48 70.0001159M55 70.0001159C55 68.8955328 54.1045258 68 52.9998847 68 51.8954742 68 51 68.8955328 51 70.0001159 51 71.1044672 51.8954742 72 52.9998847 72 54.1045258 72 55 71.1044672 55 70.0001159" fill="#FFF"></path><path d="M40.9996113 70.3349194C40.8061287 66.9517146 35.0132861 67.4167134 35.0000264 70.62436 34.9856843 74.0451844 40.8166823 73.5906782 40.9982583 70.4186038 41.0255894 69.9395298 39.7166727 70.1900712 39.6942125 70.5826458 39.6414445 71.5036862 39.0415131 72.5421918 37.8995597 72.3346442 36.9546068 72.1626689 36.3205791 71.2418845 36.3192261 70.3768896 36.3178731 69.3826573 37.1294177 68.3687195 38.2727241 68.7229068 39.1773568 69.0031344 39.6436093 69.8097805 39.6928595 70.6663302 39.7139667 71.0363842 41.02586 70.7917288 40.9996113 70.3349194M47.9995952 70.3354577C47.805589 66.9567107 42.009756 67.4114783 42.0000151 70.6223974 41.9891918 74.0391481 47.8166828 73.5971334 47.999054 70.4219222 48.027465 69.928641 46.7165027 70.1740063 46.6932328 70.5792927 46.6404696 71.4977549 46.0370752 72.5228311 44.8973904 72.3203154 43.954147 72.1527426 43.3204476 71.2388715 43.3199065 70.3788175 43.3193653 69.3891943 44.1354359 68.3883486 45.2748501 68.7357369 46.17913 69.0117092 46.6437166 69.8141201 46.6926917 70.6657572 46.7148793 71.0514042 48.0263827 70.8032332 47.9995952 70.3354577M54.9986904 70.3364249C54.8041895 66.9634344 49.0043313 67.4044046 49.0000031 70.6195796 48.9951338 74.030121 54.8160922 73.6066577 54.9995019 70.427004 55.0292587 69.9127079 53.7159046 70.1494313 53.6912876 70.5744169 53.6396191 71.4723418 53.0225726 72.5202168 51.8937103 72.2984631 50.9550206 72.1140067 50.32012 71.2518567 50.3209316 70.3818413 50.3220136 69.3940986 51.1443816 68.4225941 52.2778427 68.7559858 53.1821769 69.0216335 53.6436769 69.8226363 53.6920992 70.6649959 53.7159046 71.0742508 55.0265535 70.8210354 54.9986904 70.3364249" fill="#E5E1F6"></path><path d="M41.99312 70.3397854C41.7964572 66.9929917 35.9832874 67.373665 36.0000361 70.6081452 36.0175953 73.992708 41.811315 73.6458282 41.9993333 70.4468808 42.0339114 69.8589742 40.7121102 70.0515472 40.6823946 70.5544732 40.6318782 71.4149637 40.0445911 72.3214233 38.9764526 72.2227762 38.0007023 72.1325775 37.3180553 71.2489783 37.3245387 70.3934574 37.3315624 69.472089 38.1217256 68.5996714 39.1879732 68.8136137 40.1467045 69.0059382 40.6389019 69.8182233 40.6886079 70.6615686 40.7177831 71.159525 42.025537 70.8874381 41.99312 70.3397854M48.9997547 70.3301304C48.8076473 66.8975935 42.9802982 67.4669345 43.0000501 70.6691173 43.0214254 74.139872 48.82307 73.4904307 48.9997547 70.3301304 49.01166 70.114697 47.7150701 70.2741125 47.692883 70.6691173 47.6303805 71.7863344 46.6831014 72.9223986 45.4298033 72.2292423 44.7346991 71.8449699 44.3042161 71.1018164 44.3069218 70.3301304 44.3104393 69.2867313 45.2293081 68.1841731 46.3889876 68.6906903 47.2182965 69.0529743 47.645262 69.8139279 47.692883 70.6691173 47.7072234 70.9227685 49.0205889 70.7049792 48.9997547 70.3301304M55.9992726 70.4520021C55.8001304 67.0808325 50.0579276 67.2551777 50.0004516 70.5482011 49.9408168 73.959433 55.8074161 73.7024901 55.9992726 70.4520021 56.0354312 69.8434011 54.7115944 70.0202193 54.6805628 70.5482011 54.6301026 71.4011327 54.0405014 72.2956104 52.9727431 72.1957019 52.0404447 72.1084057 51.3337328 71.2871282 51.3191614 70.4520021 51.3051297 69.6425949 51.9209054 68.8208229 52.8556324 68.8054904 53.8910099 68.7886741 54.6282137 69.6604004 54.6805628 70.5482011 54.7169912 71.1637264 56.0300344 70.9698446 55.9992726 70.4520021M74.2786424 105.746241C78.5222381 101.425388 85.2122729 99.4338637 91.0714153 99.6239496 96.4751407 99.7990659 102.649036 101.629879 106.702666 105.464926 106.985665 105.732684 108.224065 105.223999 107.964464 104.978272 104.882112 102.062303 100.422646 100.317919 96.3634451 99.5200096 89.6834378 98.2066373 82.6516313 99.3914968 76.8153294 102.956808 75.4872385 103.767992 74.1493987 104.687635 73.0497127 105.80725 72.7327313 106.130085 74.0254473 106.004114 74.2786424 105.746241M70 91C70 89.895472 69.104528 89 68 89 66.895472 89 66 89.895472 66 91 66 92.104528 66.895472 93 68 93 69.104528 93 70 92.104528 70 91M113 91C113 89.895472 112.104528 89 111 89 109.895472 89 109 89.895472 109 91 109 92.104528 109.895472 93 111 93 112.104528 93 113 92.104528 113 91M9.01539754 95.5614426C12.9836509 104.552252 20.1677136 111.594418 28.8489649 114.97797 29.2158942 115.120945 30.3793417 114.528701 29.8754112 114.332147 21.3160273 110.995871 14.2121474 104.059432 10.2977918 95.1906816 10.0983967 94.7394077 8.84786322 95.1817994 9.01539754 95.5614426" fill="#6A79A8"></path><rect fill="#F2F2F2" x="39" y="129" width="101" height="8" rx="2"></rect><path fill="#D8D8D8" d="M47 132.5H61V133.5H47z"></path><path d="M167.857409,136.257424 C160.111182,130.765464 154.873735,122.402854 153.35865,113.243443 C153.277876,112.755064 151.917048,113.068364 152.003993,113.594144 C153.546003,122.915625 158.919476,131.34599 166.789109,136.925219 C167.178117,137.201118 168.416381,136.653656 167.857409,136.257424" fill="#6A79A8"></path><path d="M55.6597895,190 L9.52566357,190 C8.99796987,190 8.47717954,189.861412 8.02514678,189.586466 C3.81933684,187.029414 1,182.373182 1,177.064999 C1,169.012377 7.4880645,162.460246 15.4622868,162.460246 C15.5699794,162.460246 15.6779481,162.461919 15.7867452,162.464986 C16.9536911,162.497891 18.0184671,161.809132 18.5127485,160.740859 C22.0069589,153.188772 29.4164854,148.309739 37.8394268,148.309739 C39.5903979,148.309739 41.341369,148.521665 43.0335234,148.979257 C45.127454,149.545322 47.1031988,150.485882 48.9093969,151.690792 C49.3611535,151.992228 49.802417,152.309559 50.2337397,152.639996 C50.7868378,153.063569 51.0999747,153.231436 51.5150054,153.820367 C52.204238,154.797735 52.9732735,155.717381 53.8105144,156.568431 C54.5643626,157.33471 55.5070869,157.709205 56.2324932,158.474926 C56.6359262,158.901008 57.5579405,159.381466 57.8796376,159.865271 C59.7087549,162.615844 64.791293,159.678162 65.4228134,159.287494 C67.7917743,157.822139 70.6909141,157.081514 73.4586137,157.112188 C75.6188167,157.136169 77.7699072,157.637819 79.7293601,158.553562 C81.7813182,159.512526 83.3624663,161.047872 85.2542662,162.247205 C87.4487099,163.638944 88.9859526,160.040109 89.3667426,158.474368 C89.6724238,157.217035 89.8063493,155.860152 90.2862716,154.655522 C91.6023303,151.351153 92.8764165,147.581384 94.7118849,144.538297 C97.1338637,140.522861 100.376515,137.246377 104.148517,134.438082 C109.279379,130.594975 119.124139,128 125.213741,128 C138.049869,128 149.303745,135.619289 154.330504,147.328188 C154.828099,148.48653 156.012994,149.175289 157.260571,149.088009 C157.677259,149.058729 158.087319,149.044229 158.492132,149.044229 C170.35102,149.044229 180,158.788074 180,170.763553 C180,178.8053 175.648943,185.840957 169.199261,189.59511 C168.746952,189.858623 168.234722,190 167.712827,190 L55.6597895,190" fill="#E5E5E5"></path><path d="M58.6600657,191 L12.5256636,191 C11.9979699,191 11.4771795,190.861412 11.0251468,190.586466 C6.81933684,188.029414 4,183.373182 4,178.064999 C4,170.012377 10.4880645,163.460525 18.4622868,163.460525 C18.5699794,163.460525 18.6782242,163.461919 18.7870214,163.464986 C19.9539672,163.497891 21.0187432,162.809132 21.5127485,161.741138 C25.0069589,154.188772 32.4164854,149.309739 40.8397029,149.309739 C42.5903979,149.309739 44.341369,149.521665 46.0337995,149.979257 C48.127454,150.545322 50.103475,151.485882 51.9093969,152.691071 C52.3611535,152.992228 52.802417,153.309559 53.2337397,153.639996 C53.7868378,154.063569 54.0999747,154.231715 54.5150054,154.820367 C55.204238,155.797735 55.9732735,156.717381 56.8107905,157.568431 C57.5646387,158.33471 58.5070869,158.709484 59.2324932,159.475205 C59.6362024,159.901287 60.5579405,160.381745 60.8796376,160.865271 C62.709031,163.616123 67.7915691,160.678162 68.4230895,160.287494 C70.7920504,158.822418 73.6909141,158.081514 76.4588898,158.112188 C78.6188167,158.136169 80.7699072,158.637819 82.7296362,159.553562 C84.7815943,160.512526 86.3624663,162.047872 88.2542662,163.247484 C90.448986,164.638944 91.9859526,161.040109 92.3667426,159.474368 C92.6724238,158.217035 92.8063493,156.860431 93.2862716,155.655522 C94.6026065,152.351153 95.8766927,148.581384 97.7118849,145.538297 C100.133864,141.522861 103.376791,138.246656 107.148517,135.438082 C112.279655,131.594975 122.124139,129 128.213741,129 C141.049869,129 152.303745,136.619289 157.33078,148.328188 C157.828099,149.486809 159.01327,150.175567 160.260847,150.088009 C160.677535,150.058729 161.087595,150.044229 161.492132,150.044229 C173.351296,150.044229 183,159.788074 183,171.763553 C183,179.8053 178.648943,186.840957 172.199538,190.595389 C171.747229,190.858623 171.234998,191 170.712827,191 L58.6600657,191" fill="#BDDFF5"></path><path d="M57.1332256,191 L12.2876997,191 C11.7746714,191 11.2682698,190.874967 10.8289652,190.626553 C6.74047708,188.316744 4,184.111332 4,179.316832 C4,172.043425 10.3068249,166.125554 18.0583023,166.125554 C18.1629512,166.125554 18.2681524,166.126932 18.3739058,166.129686 C19.508201,166.159429 20.5433697,165.537293 21.0235399,164.572554 C24.4200748,157.751084 31.6229045,153.344353 39.8106493,153.344353 C41.5123682,153.344353 43.2146394,153.535758 44.859754,153.948863 C46.8950242,154.460288 48.8157051,155.309632 50.5712672,156.398302 C51.0102957,156.670401 51.4391079,156.957096 51.8585321,157.255358 C52.396135,157.638169 52.7004177,157.789641 53.1041031,158.321445 C53.7739668,159.204389 54.5214198,160.035006 55.3356936,160.803657 C56.0682362,161.495746 56.9846738,161.834217 57.6898807,162.525755 C58.0819691,162.910769 58.9782501,163.34453 59.2908164,163.781595 C61.0690201,166.26601 66.0096102,163.612497 66.6234218,163.259706 C68.9262509,161.936116 71.7443174,161.267161 74.434817,161.294977 C76.5346989,161.316458 78.6254689,161.769497 80.5304111,162.596809 C82.5250919,163.462953 84.061968,164.84961 85.9009179,165.933047 C88.0342101,167.189989 89.5282879,163.939401 89.8982868,162.525204 C90.1956665,161.389716 90.3257184,160.16417 90.7923588,159.075775 C92.0716163,156.091503 93.3102843,152.686414 95.0942866,149.937887 C97.4487498,146.310822 100.600644,143.351612 104.267223,140.81487 C109.255029,137.343684 118.824747,135 124.744178,135 C137.221701,135 148.161244,141.882058 153.047715,152.457553 C153.531198,153.504087 154.683165,154.126223 155.895878,154.047183 C156.300944,154.020744 156.699659,154.007524 157.092852,154.007524 C168.620803,154.007524 178,162.808595 178,173.625068 C178,180.888835 173.770415,187.243496 167.501143,190.63454 C167.061286,190.872213 166.563444,191 166.056214,191 L57.1332256,191" fill="#D8F0FF"></path><path d="M31.561748,167.101709 C36.8778968,166.28385 42.1234735,169.354375 43.9575158,174.366495 C45.8671117,179.586086 43.6032719,185.473742 38.6831567,188.13233 C37.8858313,188.563127 38.6062194,189.260166 39.2720872,188.900166 C44.6012433,186.020439 47.4055817,179.783717 45.2939561,174.012782 C43.286113,168.525036 37.4812184,165.253873 31.6832426,166.145809 C30.9567659,166.257609 30.6551051,167.241117 31.561748,167.101709" fill="#6A79A8"></path><path d="M11.9267662,190.176596 C5.91927897,186.93138 2.85057909,179.837519 5.04140194,173.305595 C7.15261881,167.011634 13.5658754,163.061044 20.1637736,164.102206 C20.4495812,164.147546 20.9236238,163.994765 21.0336348,163.697997 C23.2429771,157.726909 27.9419411,152.908272 34.0829341,150.937236 C40.8845463,148.754615 48.3434606,150.344524 53.8075264,154.857875 C54.2572449,155.229384 55.4261813,154.583364 54.8379816,154.097268 C49.0411185,149.308858 41.0304906,147.748076 33.8407993,150.038962 C27.2901671,152.126233 22.1271113,157.150409 19.7585571,163.551536 C20.0485108,163.416617 20.3384645,163.281697 20.6284182,163.147052 C13.6894305,162.052032 6.60947386,165.937223 4.01702779,172.476567 C1.25099647,179.454194 4.31859072,187.383952 10.896311,190.937202 C11.4010351,191.210064 12.5741176,190.526398 11.9267662,190.176596" fill="#6A79A8"></path><path d="M23.5797046 174.04878C27.1964016 173.534153 30.7347226 175.483357 32.0608449 178.761923 33.4844384 182.281175 31.9619486 186.297881 28.5233789 188.132057 27.7071283 188.567636 28.4464279 189.262437 29.1301518 188.897728 32.9862519 186.840583 35.0750441 182.482882 33.4374128 178.409207 31.9283182 174.655538 27.8185647 172.510078 23.7048212 173.095576 22.9544065 173.202426 22.6448924 174.181798 23.5797046 174.04878M59.5692025 178.298464C58.3401898 170.527084 62.7423909 162.622177 69.9918974 159.949371 77.6042685 157.142468 85.9354174 160.87862 89.7150485 168.060714 89.9961643 168.595104 91.2782859 168.088449 90.9451734 167.455416 87.7547455 161.392995 81.4431258 157.70259 74.7363869 158.018821 68.5504491 158.310748 62.8055099 162.060339 59.9284524 167.699308 58.2083907 171.070909 57.6330905 174.918572 58.2261864 178.668448 58.3257309 179.297479 59.6723617 178.951226 59.5692025 178.298464M44.4531666 166.327112C43.8926845 162.632088 45.9068996 158.842469 49.5206959 157.465746 53.4739667 155.959605 57.7180958 157.890471 59.7068852 161.406446 59.9955084 161.916993 61.2841142 161.42893 60.9429634 160.82598 58.6560511 156.782732 53.6969301 154.991156 49.2667187 156.569958 45.0197956 158.083229 42.4397897 162.304428 43.1036509 166.681917 43.1950156 167.284319 44.5481636 166.955013 44.4531666 166.327112" fill="#6A79A8"></path><path d="M77.9285486 188.068809C73.9919198 186.919668 71.207442 183.128799 71.3283651 178.825446 71.4592975 174.176391 74.887887 170.383265 79.3236279 169.991281 80.0524128 169.926938 80.3345668 168.925673 79.4423869 169.004408 74.6849958 169.424894 70.5725281 173.121224 70.0536678 178.19387 69.5496863 183.120051 72.6468869 187.658764 77.172441 188.979486 77.7278216 189.141472 78.7146841 188.29796 77.9285486 188.068809M128.293125 187.339304C121.222203 183.381206 117.638627 174.685718 120.036613 166.68096 122.398144 158.798357 130.037602 153.590392 137.966824 154.925768 138.347456 154.989899 139.482117 154.358302 138.770173 154.238369 132.581676 153.196165 126.1522 155.618997 122.086668 160.576267 117.774261 165.834759 116.754327 173.44057 119.603979 179.694625 121.223812 183.249612 123.927912 186.096377 127.255231 187.958963 127.599141 188.151357 128.794381 187.62026 128.293125 187.339304" fill="#6A79A8"></path><path d="M92.3286041,160.949836 C93.2876306,153.156727 96.9961421,145.338218 102.380194,139.662345 C111.782513,129.750895 127.812586,126.844077 140.214067,132.457557 C147.998992,135.981407 153.929249,142.655575 156.842154,150.662368 C156.913805,150.859764 157.247536,150.851481 157.409302,150.824978 C165.104388,149.565789 172.910809,152.925926 177.524333,159.183494 C182.09459,165.381981 182.920511,173.802062 179.689859,180.790406 C177.7572,184.970768 174.46096,188.375905 170.422852,190.55167 C169.637993,190.974344 170.82658,191.117629 171.235268,190.897595 C178.593592,186.933125 183.289791,179.152715 182.986099,170.730702 C182.703627,162.896457 178.033609,155.706576 171.06551,152.172511 C166.915515,150.067698 162.185144,149.392965 157.605793,150.142239 C157.794842,150.196626 157.983892,150.250737 158.172941,150.305124 C155.519083,143.010058 150.416952,136.825651 143.632941,133.029037 C136.764878,129.185489 128.814052,128.310048 121.113179,129.485585 C114.839272,130.443573 108.832128,132.920538 103.947982,137.018629 C99.9682977,140.35806 96.8575242,144.622902 94.6192445,149.299099 C92.8461477,153.003504 91.505164,157.041962 91.0019507,161.132323 C90.9421493,161.617115 92.2767946,161.370302 92.3286041,160.949836" fill="#6A79A8"></path><path d="M141.526697 187.352198C136.77279 184.752771 134.27533 179.198844 135.728486 173.931204 137.205854 168.575749 142.406697 164.963847 147.951652 165.827061 148.337655 165.887146 149.489136 165.266448 148.76691 165.15389 143.158574 164.280889 137.397903 167.179111 135.036183 172.401618 132.409511 178.210295 134.977426 184.953688 140.473688 187.95903 140.821608 188.149344 142.035111 187.630329 141.526697 187.352198M111.619478 186.346032C104.732338 182.63785 100.298242 175.389727 100.301262 167.532966 100.304282 160.200998 104.266935 153.18242 110.57994 149.451696 114.611785 147.068827 119.328143 146.210026 123.941536 146.970136 124.331706 147.034464 125.493978 146.409607 124.764434 146.289474 116.960492 145.003747 108.846006 148.064805 103.83805 154.202864 98.6019234 160.620502 97.4929189 169.746495 101.114825 177.213991 103.143103 181.395558 106.479177 184.764233 110.556327 186.959618 110.909155 187.149577 112.13348 186.62286 111.619478 186.346032M157.169803 187.35331C153.5562 185.463696 151.618204 181.521827 152.673227 177.709528 153.746087 173.832443 157.634451 171.183297 161.891367 171.780188 162.299336 171.837384 163.517201 171.216096 162.753626 171.109024 158.421042 170.501561 153.927343 172.463551 151.951945 176.221365 149.671865 180.55818 151.663087 185.660762 156.055801 187.958334 156.422628 188.149979 157.706953 187.634136 157.169803 187.35331" fill="#6A79A8"></path><path d="M76.8992641,40.9600308 L10.5733615,49.9562054 C7.97914126,50.3080264 5.58940243,48.5016293 5.23540776,45.9213354 L1.04408894,15.3489942 C0.690094272,12.7687003 2.50651566,10.3915168 5.10073588,10.0396958 L71.4266385,1.04379458 C74.0208587,0.6919736 76.4108724,2.49837068 76.7645922,5.07866458 L80.9559111,35.6510058 C81.3099057,38.2312997 79.4934843,40.6082099 76.8992641,40.9600308" fill="#FFA2AF"></path><path d="M72.9094956,40.5513581 L11.8849513,48.9556514 C9.2973371,49.3119673 6.91340949,47.4822145 6.5605904,44.8689544 L3.04391338,18.8255014 C2.69109429,16.2122413 4.50289024,13.8049633 7.09050439,13.4486474 L68.1150487,5.04435411 C70.7026629,4.68803821 73.0865905,6.51751409 73.4394096,9.13077422 L76.9560866,35.1745041 C77.3089057,37.7877642 75.4971098,40.1950422 72.9094956,40.5513581" fill="#FF90A1"></path><path d="M76.3267289,40.0075872 C71.5140976,40.6636215 66.7011924,41.3196558 61.8882871,41.9756901 C52.3011004,43.2825564 42.7139136,44.5894227 33.1270008,45.8960152 C26.0268014,46.8639121 18.9266019,47.8315353 11.8266764,48.7994323 C11.3136103,48.8692523 10.7989006,48.95906 10.2833692,49.0097138 C7.80596933,49.2531255 5.88409436,47.6045519 5.49018669,45.1945294 C5.01355293,42.2771482 4.68977068,39.3263629 4.29011054,36.3977558 C3.63871107,31.6234362 2.9873116,26.8491165 2.33618605,22.0747969 C2.08937742,20.2671431 1.84284272,18.4594894 1.59630802,16.6518357 C1.48016278,15.8019482 1.27663469,14.9063354 1.28786571,14.0433053 C1.31662809,11.878885 2.87089243,10.2664535 4.94671463,9.94172202 C5.66550025,9.82918859 6.38976442,9.74513077 7.11074147,9.64683515 C10.1464054,9.23311737 13.1820694,8.81912578 16.2177334,8.405408 C25.6208409,7.12373167 35.0239484,5.84205533 44.4270559,4.560379 C52.20413,3.50021007 59.9814781,2.44031494 67.7585523,1.38014601 C69.8204042,1.09922315 72.1578271,0.425665406 73.9323291,1.90201636 C75.178699,2.93891195 75.4194812,4.35420462 75.6216397,5.83548404 C75.8361249,7.40848778 76.050884,8.98176534 76.2653692,10.5547691 C77.3725839,18.6692232 78.5781386,26.7765585 79.5872873,34.9036076 C79.890799,37.3475817 78.7397558,39.5834649 76.1467586,40.0390747 C75.3096363,40.1861074 75.5646628,41.0655657 76.3834319,40.9218186 C79.2848714,40.4119956 81.2787893,37.9250343 80.9681556,34.97288 C80.8769378,34.1073857 80.7323041,33.243808 80.6145153,32.3815993 C79.9998221,27.8761552 79.3851289,23.3704372 78.7704357,18.8647193 C78.1894356,14.6062463 77.6084355,10.3477733 77.0277093,6.08930031 C76.8830756,5.02940518 76.8192505,3.9035233 76.3549435,2.92576936 C75.3441512,0.797217379 73.0760319,-0.211202604 70.8007905,0.0368637836 C65.0595452,0.663053439 59.3350094,1.59973678 53.6132128,2.37980426 C43.5724022,3.74827645 33.5315916,5.11702245 23.4907811,6.48549464 C17.3383706,7.32415617 11.1741812,8.10230702 5.0302625,9.00175302 C3.40121597,9.24023627 1.91461171,9.91187739 0.928198973,11.2847304 C-0.0584876934,12.6578573 -0.112725328,14.1766479 0.10422521,15.7679965 C0.625509143,19.5878355 1.14651915,23.4079484 1.66780308,27.2277874 C2.31838077,31.9955357 2.96868453,36.7635579 3.61926222,41.5313062 C4.05645042,44.7372768 4.03207088,48.6428165 7.8196657,49.7821147 C9.56951424,50.3086398 11.6940955,49.7459726 13.4617493,49.5050251 C16.9641857,49.0277848 20.4663481,48.5502707 23.9687844,48.0730304 C33.9175554,46.7168794 43.8663264,45.3607284 53.8148234,44.0048512 C60.91064,43.0375018 68.0061827,42.0704262 75.1017254,41.1033506 C75.4690621,41.0532445 75.8361249,41.0031384 76.2031877,40.9530323 C76.9236168,40.8550105 77.2276763,39.884923 76.3267289,40.0075872" fill="#6A79A8"></path><path d="M15.9973579,124.411921 C14.7915941,115.358268 13.585558,106.304888 12.3795219,97.251235 C10.4652221,82.8790223 8.55092233,68.5070834 6.63662253,54.1348706 C6.19712326,50.8345929 5.75735168,47.5340413 5.31785241,44.2337635 C5.2549501,43.7622561 3.93345694,44.0672847 4.00262225,44.5880786 C5.20865835,53.641732 6.41469446,62.6953854 7.62045826,71.7490388 C9.53475806,86.1209777 11.4490579,100.49319 13.3633577,114.865129 C13.8031292,118.165681 14.2426285,121.465959 14.6824001,124.766236 C14.7450301,125.237744 16.0667956,124.932715 15.9973579,124.411921" fill="#6A79A8"></path><rect fill="#F2F2F2" x="39" y="118" width="101" height="8" rx="2"></rect><path fill="#D8D8D8" d="M47 121.5H72V122.5H47z"></path><rect fill="#BDDFF5" x="41" y="120.5" width="3" height="3" rx="1"></rect><rect fill="#BDDFF5" x="41" y="131.5" width="3" height="3" rx="1"></rect><path d="M20.04,31.09 L15.648,18.4 L18.042,18.4 L21.048,27.742 L24.144,18.364 L26.016,18.364 L29.112,27.742 L32.118,18.4 L34.44,18.4 L30.048,31.09 L28.14,31.09 L25.044,22.036 L21.948,31.09 L20.04,31.09 Z M44.43,31 L42.27,31 L42.27,29.83 C41.622,30.604 40.632,31.198 39.192,31.198 C37.392,31.198 35.808,30.172 35.808,28.228 C35.808,26.122 37.446,25.114 39.66,25.114 C40.812,25.114 41.55,25.276 42.288,25.51 L42.288,25.33 C42.288,24.016 41.46,23.296 39.948,23.296 C38.886,23.296 38.094,23.53 37.23,23.89 L36.636,22.144 C37.68,21.676 38.706,21.352 40.254,21.352 C43.062,21.352 44.43,22.828 44.43,25.366 L44.43,31 Z M42.324,27.562 L42.324,27.022 C41.766,26.806 40.992,26.644 40.146,26.644 C38.778,26.644 37.968,27.202 37.968,28.156 C37.968,29.056 38.778,29.56 39.804,29.56 C41.244,29.56 42.324,28.75 42.324,27.562 Z M47.058,20.038 L47.058,17.968 L49.398,17.968 L49.398,20.038 L47.058,20.038 Z M47.148,31 L47.148,21.496 L49.326,21.496 L49.326,31 L47.148,31 Z M55.356,31.162 C53.754,31.162 52.62,30.46 52.62,28.372 L52.62,23.368 L51.414,23.368 L51.414,21.496 L52.62,21.496 L52.62,18.886 L54.798,18.886 L54.798,21.496 L57.354,21.496 L57.354,23.368 L54.798,23.368 L54.798,28.03 C54.798,28.876 55.23,29.218 55.968,29.218 C56.454,29.218 56.886,29.11 57.318,28.894 L57.318,30.676 C56.778,30.982 56.166,31.162 55.356,31.162 Z M68.874,31 L68.874,28.588 L71.214,28.588 L71.214,31 L68.874,31 Z M64.14,31 L64.14,28.588 L66.48,28.588 L66.48,31 L64.14,31 Z M59.406,31 L59.406,28.588 L61.746,28.588 L61.746,31 L59.406,31 Z" fill="#FFF" transform="rotate(-7 43.431 24.583)"></path></g></svg>
